<svg width="1000" height="667" viewBox="0 0 1000 667" fill="none" xmlns="http://www.w3.org/2000/svg">
<rect width="1000" height="667" fill="#E5E5E5"/>
<g clip-path="url(#clip0)">
<path d="M0 666.667H1000V6.10352e-05H0V666.667Z" fill="#EFEFEF"/>
<path d="M132.733 139.248C68.3918 203.589 68.3918 307.907 132.733 372.248V372.249C197.075 436.591 301.392 436.591 365.735 372.249L737.982 -8.68337e-05H271.981L132.733 139.248Z" fill="#EFEFEF"/>
<path d="M867.266 302.698C802.924 238.357 698.606 238.357 634.265 302.698L270.296 666.668H736.298L867.266 535.698C931.608 471.358 931.608 367.04 867.266 302.698Z" fill="#EFEFEF"/>
<path d="M205.233 -0.000189222H0.000671387V205.233L205.233 -0.000189222Z" fill="#133E70"/>
<path d="M376.739 -63.7067C376.372 -63.8787 376.002 -64.0413 375.632 -64.2093L236.05 75.3773C236.218 75.7453 236.38 76.116 236.552 76.484L376.739 -63.7067Z" fill="#ED62A6"/>
<path d="M367.619 -67.4605C367.225 -67.6018 366.83 -67.7471 366.434 -67.8845L232.374 66.1782C232.511 66.5742 232.657 66.9675 232.798 67.3635L367.619 -67.4605Z" fill="#ED62A6"/>
<path d="M357.748 -70.4632C357.317 -70.5712 356.886 -70.6779 356.454 -70.7792L229.48 56.1995C229.582 56.6301 229.688 57.0621 229.796 57.4915L357.748 -70.4632Z" fill="#ED62A6"/>
<path d="M385.178 -59.2704C384.837 -59.4704 384.487 -59.6517 384.145 -59.8464L240.413 83.8883C240.609 84.231 240.79 84.5803 240.989 84.9216L385.178 -59.2704Z" fill="#ED62A6"/>
<path d="M226.638 33.2927C226.646 33.8167 226.66 34.3407 226.675 34.8634L335.119 -73.5833C334.596 -73.5979 334.072 -73.6126 333.548 -73.6206L226.638 33.2927Z" fill="#ED62A6"/>
<path d="M433.604 59.6678C433.806 58.9345 434.015 58.2011 434.199 57.4638L357.727 133.938C358.464 133.753 359.196 133.545 359.931 133.344L433.604 59.6678Z" fill="#ED62A6"/>
<path d="M342.155 136.636C342.766 136.577 343.374 136.487 343.983 136.417L436.678 43.7199C436.747 43.1105 436.838 42.5025 436.896 41.8919L342.155 136.636Z" fill="#ED62A6"/>
<path d="M346.998 -72.5868C346.52 -72.6548 346.039 -72.6974 345.56 -72.7588L227.499 45.3052C227.56 45.7839 227.603 46.2639 227.671 46.7426L346.998 -72.5868Z" fill="#ED62A6"/>
<path d="M425.237 80.9106C425.795 79.8532 426.312 78.7786 426.832 77.7066L377.969 126.571C379.041 126.049 380.115 125.533 381.173 124.976L425.237 80.9106Z" fill="#ED62A6"/>
<path d="M400.214 -48.5594C399.925 -48.8061 399.64 -49.0594 399.349 -49.3034L250.958 99.0912C251.201 99.3832 251.454 99.6686 251.701 99.9579L400.214 -48.5594Z" fill="#ED62A6"/>
<path d="M431.611 -2.71048C431.474 -3.10648 431.329 -3.49982 431.187 -3.89582L296.366 130.928C296.762 131.07 297.155 131.216 297.551 131.352L431.611 -2.71048Z" fill="#ED62A6"/>
<path d="M436.487 18.1626C436.425 17.6839 436.383 17.2039 436.315 16.7252L316.988 136.055C317.467 136.123 317.947 136.165 318.425 136.227L436.487 18.1626Z" fill="#ED62A6"/>
<path d="M306.259 -70.4709C305.522 -70.2855 304.789 -70.0775 304.055 -69.8762L230.381 3.79978C230.179 4.53445 229.971 5.26645 229.786 6.00378L306.259 -70.4709Z" fill="#ED62A6"/>
<path d="M437.348 30.1757C437.341 29.6517 437.325 29.1277 437.311 28.6037L328.867 137.05C329.391 137.066 329.915 137.081 330.439 137.089L437.348 30.1757Z" fill="#ED62A6"/>
<path d="M321.831 -73.1683C321.22 -73.1096 320.612 -73.019 320.002 -72.9496L227.308 19.7477C227.239 20.357 227.148 20.965 227.09 21.5757L321.831 -73.1683Z" fill="#ED62A6"/>
<path d="M257.884 106.649L406.906 -42.3765C406.772 -42.5125 406.648 -42.6539 406.514 -42.7885C406.379 -42.9245 406.236 -43.0472 406.102 -43.1819L257.079 105.843C257.214 105.979 257.336 106.121 257.472 106.257C257.607 106.391 257.748 106.514 257.884 106.649Z" fill="#ED62A6"/>
<path d="M418.588 -28.3094C418.368 -28.6254 418.151 -28.9441 417.927 -29.2574L271.004 117.669C271.317 117.893 271.636 118.111 271.952 118.331L418.588 -28.3094Z" fill="#ED62A6"/>
<path d="M434.507 7.26876C434.404 6.83676 434.297 6.4061 434.189 5.97543L306.237 133.931C306.669 134.039 307.099 134.145 307.531 134.247L434.507 7.26876Z" fill="#ED62A6"/>
<path d="M676.904 537.93C676.59 537.706 676.271 537.489 675.955 537.269L529.32 683.909C529.539 684.226 529.756 684.543 529.98 684.857L676.904 537.93Z" fill="#ED62A6"/>
<path d="M510.559 625.424C510.567 625.948 510.582 626.472 510.597 626.996L619.041 518.549C618.517 518.533 617.993 518.518 617.47 518.51L510.559 625.424Z" fill="#ED62A6"/>
<path d="M717.526 651.799C717.727 651.065 717.936 650.332 718.12 649.596L641.65 726.069C642.387 725.884 643.118 725.676 643.852 725.475L717.526 651.799Z" fill="#ED62A6"/>
<path d="M626.076 728.767C626.687 728.709 627.295 728.618 627.904 728.549L720.599 635.851C720.668 635.241 720.759 634.634 720.819 634.023L626.076 728.767Z" fill="#ED62A6"/>
<path d="M630.919 519.545C630.441 519.475 629.96 519.434 629.481 519.371L511.42 637.437C511.483 637.914 511.524 638.397 511.593 638.874L630.919 519.545Z" fill="#ED62A6"/>
<path d="M684.136 543.572C683.846 543.325 683.562 543.071 683.271 542.828L534.879 691.223C535.122 691.515 535.376 691.8 535.623 692.089L684.136 543.572Z" fill="#ED62A6"/>
<path d="M715.532 589.421C715.395 589.024 715.249 588.63 715.109 588.236L580.288 723.06C580.683 723.201 581.076 723.346 581.473 723.484L715.532 589.421Z" fill="#ED62A6"/>
<path d="M720.407 610.293C720.346 609.816 720.304 609.335 720.235 608.857L600.91 728.185C601.387 728.255 601.868 728.296 602.347 728.359L720.407 610.293Z" fill="#ED62A6"/>
<path d="M590.18 521.661C589.443 521.846 588.71 522.054 587.976 522.255L514.303 595.931C514.1 596.666 513.892 597.398 513.708 598.135L590.18 521.661Z" fill="#ED62A6"/>
<path d="M721.269 622.306C721.261 621.782 721.246 621.26 721.232 620.734L612.788 729.181C613.312 729.197 613.836 729.212 614.36 729.22L721.269 622.306Z" fill="#ED62A6"/>
<path d="M605.752 518.963C605.141 519.021 604.533 519.112 603.924 519.181L511.229 611.879C511.16 612.489 511.069 613.096 511.011 613.708L605.752 518.963Z" fill="#ED62A6"/>
<path d="M522.669 574.691C522.111 575.748 521.594 576.821 521.077 577.892L569.938 529.029C568.865 529.549 567.793 530.065 566.735 530.623L522.669 574.691Z" fill="#ED62A6"/>
<path d="M702.51 563.822C702.29 563.506 702.072 563.187 701.848 562.873L554.924 709.799C555.239 710.023 555.557 710.241 555.873 710.461L702.51 563.822Z" fill="#ED62A6"/>
<path d="M718.428 599.4C718.325 598.968 718.22 598.539 718.112 598.107L590.16 726.061C590.589 726.169 591.02 726.276 591.453 726.379L718.428 599.4Z" fill="#ED62A6"/>
<path d="M696.949 556.507C696.706 556.215 696.453 555.93 696.206 555.642L547.693 704.158C547.981 704.406 548.266 704.659 548.558 704.902L696.949 556.507Z" fill="#ED62A6"/>
<path d="M707.494 571.711C707.3 571.367 707.118 571.018 706.917 570.678L562.729 714.87C563.072 715.07 563.42 715.25 563.762 715.446L707.494 571.711Z" fill="#ED62A6"/>
<path d="M711.858 580.222C711.69 579.854 711.527 579.483 711.354 579.116L571.167 719.306C571.535 719.478 571.906 719.64 572.274 719.808L711.858 580.222Z" fill="#ED62A6"/>
<path d="M39.8895 43.2192C42.6948 43.2192 44.9682 40.9459 44.9682 38.1406C44.9682 35.3352 42.6948 33.0606 39.8895 33.0606C37.0842 33.0606 34.8095 35.3352 34.8095 38.1406C34.8095 40.9459 37.0842 43.2192 39.8895 43.2192Z" fill="#FDB700"/>
<path d="M39.8895 58.6494C37.0842 58.6494 34.8095 60.9241 34.8095 63.7281C34.8095 66.5334 37.0842 68.8081 39.8895 68.8081C42.6948 68.8081 44.9682 66.5334 44.9682 63.7281C44.9682 60.9241 42.6948 58.6494 39.8895 58.6494Z" fill="#FDB700"/>
<path d="M39.8895 84.2373C37.0842 84.2373 34.8095 86.512 34.8095 89.3173C34.8095 92.1213 37.0842 94.396 39.8895 94.396C42.6948 94.396 44.9682 92.1213 44.9682 89.3173C44.9682 86.512 42.6948 84.2373 39.8895 84.2373Z" fill="#FDB700"/>
<path d="M39.8895 109.825C37.0842 109.825 34.8095 112.1 34.8095 114.905C34.8095 117.711 37.0842 119.984 39.8895 119.984C42.6948 119.984 44.9682 117.711 44.9682 114.905C44.9682 112.1 42.6948 109.825 39.8895 109.825Z" fill="#FDB700"/>
<path d="M39.8895 135.414C37.0842 135.414 34.8095 137.689 34.8095 140.493C34.8095 143.298 37.0842 145.573 39.8895 145.573C42.6948 145.573 44.9682 143.298 44.9682 140.493C44.9682 137.689 42.6948 135.414 39.8895 135.414Z" fill="#FDB700"/>
<path d="M39.8895 161.002C37.0842 161.002 34.8095 163.276 34.8095 166.082C34.8095 168.886 37.0842 171.16 39.8895 171.16C42.6948 171.16 44.9682 168.886 44.9682 166.082C44.9682 163.276 42.6948 161.002 39.8895 161.002Z" fill="#FDB700"/>
<path d="M39.8895 186.59C37.0842 186.59 34.8095 188.864 34.8095 191.67C34.8095 194.475 37.0842 196.748 39.8895 196.748C42.6948 196.748 44.9682 194.475 44.9682 191.67C44.9682 188.864 42.6948 186.59 39.8895 186.59Z" fill="#FDB700"/>
<path d="M39.8895 212.178C37.0842 212.178 34.8095 214.451 34.8095 217.257C34.8095 220.062 37.0842 222.337 39.8895 222.337C42.6948 222.337 44.9682 220.062 44.9682 217.257C44.9682 214.451 42.6948 212.178 39.8895 212.178Z" fill="#FDB700"/>
<path d="M39.8895 237.766C37.0842 237.766 34.8095 240.041 34.8095 242.846C34.8095 245.65 37.0842 247.925 39.8895 247.925C42.6948 247.925 44.9682 245.65 44.9682 242.846C44.9682 240.041 42.6948 237.766 39.8895 237.766Z" fill="#FDB700"/>
<path d="M39.8895 263.354C37.0842 263.354 34.8095 265.629 34.8095 268.434C34.8095 271.239 37.0842 273.513 39.8895 273.513C42.6948 273.513 44.9682 271.239 44.9682 268.434C44.9682 265.629 42.6948 263.354 39.8895 263.354Z" fill="#FDB700"/>
<path d="M39.8895 288.942C37.0842 288.942 34.8095 291.217 34.8095 294.021C34.8095 296.826 37.0842 299.101 39.8895 299.101C42.6948 299.101 44.9682 296.826 44.9682 294.021C44.9682 291.217 42.6948 288.942 39.8895 288.942Z" fill="#FDB700"/>
<path d="M966.614 373.305C969.419 373.305 971.693 371.03 971.693 368.225C971.693 365.421 969.419 363.146 966.614 363.146C963.809 363.146 961.534 365.421 961.534 368.225C961.534 371.03 963.809 373.305 966.614 373.305Z" fill="#133E70"/>
<path d="M966.614 388.735C963.809 388.735 961.534 391.008 961.534 393.815C961.534 396.619 963.809 398.892 966.614 398.892C969.419 398.892 971.693 396.619 971.693 393.815C971.693 391.008 969.419 388.735 966.614 388.735Z" fill="#133E70"/>
<path d="M966.614 414.323C963.809 414.323 961.534 416.597 961.534 419.402C961.534 422.207 963.809 424.481 966.614 424.481C969.419 424.481 971.693 422.207 971.693 419.402C971.693 416.597 969.419 414.323 966.614 414.323Z" fill="#133E70"/>
<path d="M966.614 439.911C963.809 439.911 961.534 442.185 961.534 444.991C961.534 447.795 963.809 450.069 966.614 450.069C969.419 450.069 971.693 447.795 971.693 444.991C971.693 442.185 969.419 439.911 966.614 439.911Z" fill="#133E70"/>
<path d="M966.614 465.499C963.809 465.499 961.534 467.772 961.534 470.579C961.534 473.383 963.809 475.658 966.614 475.658C969.419 475.658 971.693 473.383 971.693 470.579C971.693 467.772 969.419 465.499 966.614 465.499Z" fill="#133E70"/>
<path d="M966.614 491.088C963.809 491.088 961.534 493.361 961.534 496.166C961.534 498.972 963.809 501.245 966.614 501.245C969.419 501.245 971.693 498.972 971.693 496.166C971.693 493.361 969.419 491.088 966.614 491.088Z" fill="#133E70"/>
<path d="M966.614 516.675C963.809 516.675 961.534 518.95 961.534 521.755C961.534 524.559 963.809 526.834 966.614 526.834C969.419 526.834 971.693 524.559 971.693 521.755C971.693 518.95 969.419 516.675 966.614 516.675Z" fill="#133E70"/>
<path d="M966.614 542.263C963.809 542.263 961.534 544.537 961.534 547.343C961.534 550.147 963.809 552.421 966.614 552.421C969.419 552.421 971.693 550.147 971.693 547.343C971.693 544.537 969.419 542.263 966.614 542.263Z" fill="#133E70"/>
<path d="M966.614 567.852C963.809 567.852 961.534 570.125 961.534 572.931C961.534 575.736 963.809 578.009 966.614 578.009C969.419 578.009 971.693 575.736 971.693 572.931C971.693 570.125 969.419 567.852 966.614 567.852Z" fill="#133E70"/>
<path d="M966.614 593.439C963.809 593.439 961.534 595.714 961.534 598.519C961.534 601.323 963.809 603.598 966.614 603.598C969.419 603.598 971.693 601.323 971.693 598.519C971.693 595.714 969.419 593.439 966.614 593.439Z" fill="#133E70"/>
<path d="M966.614 619.028C963.809 619.028 961.534 621.301 961.534 624.108C961.534 626.912 963.809 629.186 966.614 629.186C969.419 629.186 971.693 626.912 971.693 624.108C971.693 621.301 969.419 619.028 966.614 619.028Z" fill="#133E70"/>
<path d="M341.878 338.844C343.132 340.097 345.168 340.097 346.423 338.844C347.678 337.589 347.678 335.553 346.423 334.299C345.168 333.043 343.132 333.043 341.878 334.299C340.623 335.553 340.623 337.589 341.878 338.844Z" fill="#133E70"/>
<path d="M334.974 345.748C333.719 344.493 331.685 344.493 330.429 345.748C329.174 347.001 329.174 349.037 330.429 350.292C331.685 351.548 333.719 351.548 334.974 350.292C336.229 349.037 336.229 347.001 334.974 345.748Z" fill="#133E70"/>
<path d="M323.526 357.196C322.271 355.941 320.236 355.941 318.98 357.196C317.726 358.45 317.726 360.486 318.98 361.741C320.236 362.996 322.271 362.996 323.526 361.741C324.78 360.486 324.78 358.45 323.526 357.196Z" fill="#133E70"/>
<path d="M312.078 368.644C310.823 367.389 308.787 367.39 307.532 368.644C306.278 369.898 306.276 371.934 307.532 373.189C308.787 374.445 310.823 374.445 312.078 373.189C313.332 371.934 313.332 369.898 312.078 368.644Z" fill="#133E70"/>
<path d="M300.629 380.093C299.374 378.838 297.338 378.838 296.084 380.093C294.829 381.347 294.829 383.383 296.084 384.637C297.338 385.893 299.374 385.893 300.629 384.637C301.884 383.383 301.884 381.347 300.629 380.093Z" fill="#133E70"/>
<path d="M289.181 391.541C287.926 390.286 285.89 390.288 284.635 391.541C283.381 392.796 283.381 394.832 284.635 396.086C285.89 397.342 287.926 397.342 289.181 396.086C290.435 394.832 290.435 392.796 289.181 391.541Z" fill="#133E70"/>
<path d="M277.732 402.99C276.477 401.735 274.441 401.735 273.187 402.99C271.932 404.245 271.932 406.281 273.187 407.534C274.441 408.79 276.477 408.79 277.732 407.534C278.987 406.281 278.987 404.245 277.732 402.99Z" fill="#133E70"/>
<path d="M266.283 414.438C265.029 413.183 262.994 413.183 261.738 414.438C260.483 415.693 260.483 417.729 261.738 418.983C262.993 420.239 265.029 420.239 266.283 418.983C267.538 417.729 267.538 415.693 266.283 414.438Z" fill="#133E70"/>
<path d="M254.835 425.887C253.58 424.632 251.545 424.632 250.289 425.887C249.035 427.142 249.035 429.176 250.289 430.431C251.545 431.687 253.58 431.687 254.835 430.431C256.089 429.176 256.089 427.142 254.835 425.887Z" fill="#133E70"/>
<path d="M243.386 437.335C242.132 436.08 240.097 436.08 238.841 437.335C237.586 438.59 237.586 440.626 238.841 441.88C240.097 443.136 242.132 443.136 243.386 441.88C244.641 440.626 244.641 438.59 243.386 437.335Z" fill="#133E70"/>
<path d="M231.938 448.784C230.683 447.53 228.648 447.53 227.392 448.784C226.138 450.039 226.138 452.074 227.392 453.328C228.648 454.584 230.683 454.584 231.938 453.328C233.192 452.074 233.192 450.039 231.938 448.784Z" fill="#133E70"/>
<path d="M757.48 230.84C758.733 232.095 760.769 232.095 762.024 230.84C763.28 229.586 763.28 227.55 762.024 226.295C760.769 225.04 758.733 225.04 757.48 226.295C756.225 227.551 756.225 229.586 757.48 230.84Z" fill="#133E70"/>
<path d="M750.576 237.744C749.322 236.489 747.286 236.489 746.031 237.744C744.775 238.999 744.775 241.033 746.031 242.289C747.286 243.544 749.322 243.544 750.576 242.289C751.831 241.033 751.831 238.999 750.576 237.744Z" fill="#133E70"/>
<path d="M739.127 249.192C737.872 247.937 735.838 247.937 734.583 249.192C733.327 250.447 733.327 252.483 734.583 253.737C735.838 254.992 737.872 254.992 739.127 253.737C740.382 252.483 740.382 250.447 739.127 249.192Z" fill="#133E70"/>
<path d="M727.679 260.64C726.425 259.386 724.389 259.386 723.134 260.64C721.878 261.895 721.878 263.931 723.134 265.186C724.389 266.44 726.425 266.44 727.679 265.186C728.934 263.931 728.934 261.895 727.679 260.64Z" fill="#133E70"/>
<path d="M716.23 272.089C714.975 270.834 712.941 270.834 711.686 272.089C710.43 273.344 710.43 275.38 711.686 276.634C712.941 277.889 714.975 277.889 716.23 276.634C717.485 275.38 717.485 273.344 716.23 272.089Z" fill="#133E70"/>
<path d="M704.782 283.537C703.527 282.283 701.491 282.283 700.237 283.537C698.981 284.792 698.981 286.828 700.237 288.083C701.491 289.337 703.527 289.337 704.782 288.083C706.037 286.828 706.037 284.792 704.782 283.537Z" fill="#133E70"/>
<path d="M693.333 294.986C692.078 293.732 690.043 293.732 688.789 294.986C687.533 296.241 687.533 298.277 688.789 299.532C690.043 300.786 692.078 300.786 693.333 299.532C694.587 298.277 694.587 296.241 693.333 294.986Z" fill="#133E70"/>
<path d="M681.885 306.435C680.63 305.18 678.594 305.18 677.34 306.435C676.084 307.689 676.084 309.724 677.34 310.98C678.594 312.235 680.63 312.235 681.885 310.98C683.14 309.725 683.14 307.689 681.885 306.435Z" fill="#133E70"/>
<path d="M670.436 317.883C669.182 316.629 667.146 316.629 665.892 317.883C664.636 319.138 664.636 321.173 665.892 322.429C667.146 323.683 669.182 323.683 670.436 322.429C671.69 321.174 671.69 319.138 670.436 317.883Z" fill="#133E70"/>
<path d="M658.988 329.332C657.733 328.077 655.697 328.077 654.442 329.332C653.188 330.586 653.186 332.621 654.442 333.877C655.697 335.132 657.733 335.132 658.988 333.877C660.242 332.622 660.242 330.586 658.988 329.332Z" fill="#133E70"/>
<path d="M647.54 340.78C646.285 339.526 644.249 339.526 642.994 340.78C641.738 342.035 641.738 344.071 642.994 345.326C644.249 346.582 646.285 346.582 647.54 345.326C648.793 344.071 648.793 342.035 647.54 340.78Z" fill="#133E70"/>
<path d="M-211.62 810.329C-231.521 790.426 -231.521 758.159 -211.62 738.258L59.2204 467.418C79.1218 447.518 111.388 447.518 131.29 467.418C151.191 487.321 151.191 519.587 131.29 539.489L-139.55 810.329C-159.452 830.23 -191.718 830.23 -211.62 810.329Z" fill="#133E70"/>
<path d="M1186.02 -127.416C1205.92 -107.515 1205.92 -75.2483 1186.02 -55.347L915.182 215.493C895.28 235.394 863.014 235.394 843.112 215.493H843.111C823.211 195.592 823.211 163.325 843.111 143.422L1113.95 -127.416C1133.85 -147.318 1166.12 -147.318 1186.02 -127.416Z" fill="#133E70"/>
<path d="M224.66 192.198C223.204 192.198 222.024 193.378 222.024 194.834C222.024 196.289 223.204 197.47 224.66 197.47C226.115 197.47 227.296 196.289 227.296 194.834C227.296 193.378 226.115 192.198 224.66 192.198Z" fill="#133E70"/>
<path d="M248.322 192.198C246.867 192.198 245.686 193.378 245.686 194.834C245.686 196.289 246.867 197.47 248.322 197.47C249.778 197.47 250.958 196.289 250.958 194.834C250.958 193.378 249.778 192.198 248.322 192.198Z" fill="#133E70"/>
<path d="M271.984 197.47C273.44 197.47 274.62 196.29 274.62 194.834C274.62 193.379 273.44 192.198 271.984 192.198C270.528 192.198 269.348 193.379 269.348 194.834C269.348 196.29 270.528 197.47 271.984 197.47Z" fill="#133E70"/>
<path d="M224.66 216.431C223.204 216.431 222.024 217.611 222.024 219.067C222.024 220.522 223.204 221.702 224.66 221.702C226.115 221.702 227.296 220.522 227.296 219.067C227.296 217.611 226.115 216.431 224.66 216.431Z" fill="#133E70"/>
<path d="M248.322 216.431C246.867 216.431 245.686 217.611 245.686 219.067C245.686 220.522 246.867 221.702 248.322 221.702C249.778 221.702 250.958 220.522 250.958 219.067C250.958 217.611 249.778 216.431 248.322 216.431Z" fill="#133E70"/>
<path d="M271.984 216.431C270.528 216.431 269.348 217.611 269.348 219.067C269.348 220.522 270.528 221.702 271.984 221.702C273.44 221.702 274.62 220.522 274.62 219.067C274.62 217.611 273.44 216.431 271.984 216.431Z" fill="#133E70"/>
<path d="M224.66 240.663C223.204 240.663 222.024 241.843 222.024 243.299C222.024 244.753 223.204 245.935 224.66 245.935C226.115 245.935 227.296 244.753 227.296 243.299C227.296 241.843 226.115 240.663 224.66 240.663Z" fill="#133E70"/>
<path d="M248.322 240.663C246.867 240.663 245.686 241.843 245.686 243.299C245.686 244.753 246.867 245.935 248.322 245.935C249.778 245.935 250.958 244.753 250.958 243.299C250.958 241.843 249.778 240.663 248.322 240.663Z" fill="#133E70"/>
<path d="M271.984 240.663C270.528 240.663 269.348 241.843 269.348 243.299C269.348 244.753 270.528 245.935 271.984 245.935C273.44 245.935 274.62 244.753 274.62 243.299C274.62 241.843 273.44 240.663 271.984 240.663Z" fill="#133E70"/>
<path d="M723.454 430.447C721.998 430.447 720.818 431.627 720.818 433.083C720.818 434.538 721.998 435.718 723.454 435.718C724.91 435.718 726.09 434.538 726.09 433.083C726.09 431.627 724.91 430.447 723.454 430.447Z" fill="#133E70"/>
<path d="M747.115 430.447C745.659 430.447 744.479 431.627 744.479 433.083C744.479 434.538 745.659 435.718 747.115 435.718C748.571 435.718 749.751 434.538 749.751 433.083C749.751 431.627 748.571 430.447 747.115 430.447Z" fill="#133E70"/>
<path d="M770.777 435.718C772.233 435.718 773.413 434.538 773.413 433.082C773.413 431.627 772.233 430.447 770.777 430.447C769.321 430.447 768.141 431.627 768.141 433.082C768.141 434.538 769.321 435.718 770.777 435.718Z" fill="#133E70"/>
<path d="M723.454 454.679C721.998 454.679 720.818 455.86 720.818 457.316C720.818 458.769 721.998 459.951 723.454 459.951C724.91 459.951 726.09 458.769 726.09 457.316C726.09 455.86 724.91 454.679 723.454 454.679Z" fill="#133E70"/>
<path d="M747.115 454.679C745.659 454.679 744.479 455.86 744.479 457.316C744.479 458.769 745.659 459.951 747.115 459.951C748.571 459.951 749.751 458.769 749.751 457.316C749.751 455.86 748.571 454.679 747.115 454.679Z" fill="#133E70"/>
<path d="M770.777 454.679C769.321 454.679 768.141 455.86 768.141 457.316C768.141 458.769 769.321 459.951 770.777 459.951C772.233 459.951 773.413 458.769 773.413 457.316C773.413 455.86 772.233 454.679 770.777 454.679Z" fill="#133E70"/>
<path d="M723.454 478.912C721.998 478.912 720.818 480.092 720.818 481.548C720.818 483.003 721.998 484.183 723.454 484.183C724.91 484.183 726.09 483.003 726.09 481.548C726.09 480.092 724.91 478.912 723.454 478.912Z" fill="#133E70"/>
<path d="M747.115 478.912C745.659 478.912 744.479 480.092 744.479 481.548C744.479 483.003 745.659 484.183 747.115 484.183C748.571 484.183 749.751 483.003 749.751 481.548C749.751 480.092 748.571 478.912 747.115 478.912Z" fill="#133E70"/>
<path d="M770.777 478.912C769.321 478.912 768.141 480.092 768.141 481.548C768.141 483.003 769.321 484.183 770.777 484.183C772.233 484.183 773.413 483.003 773.413 481.548C773.413 480.092 772.233 478.912 770.777 478.912Z" fill="#133E70"/>
<path d="M151.239 561.856C150.379 561.856 149.682 562.553 149.682 563.413C149.682 564.273 150.379 564.971 151.239 564.971C152.099 564.971 152.796 564.273 152.796 563.413C152.796 562.553 152.099 561.856 151.239 561.856Z" fill="#133E70"/>
<path d="M165.221 561.856C164.361 561.856 163.664 562.553 163.664 563.413C163.664 564.273 164.361 564.971 165.221 564.971C166.081 564.971 166.778 564.273 166.778 563.413C166.778 562.553 166.081 561.856 165.221 561.856Z" fill="#133E70"/>
<path d="M179.203 564.97C180.063 564.97 180.76 564.274 180.76 563.413C180.76 562.554 180.063 561.856 179.203 561.856C178.343 561.856 177.645 562.554 177.645 563.413C177.645 564.274 178.343 564.97 179.203 564.97Z" fill="#133E70"/>
<path d="M151.239 576.175C150.379 576.175 149.682 576.871 149.682 577.732C149.682 578.591 150.379 579.29 151.239 579.29C152.099 579.29 152.796 578.591 152.796 577.732C152.796 576.871 152.099 576.175 151.239 576.175Z" fill="#133E70"/>
<path d="M165.221 576.175C164.361 576.175 163.664 576.871 163.664 577.732C163.664 578.591 164.361 579.29 165.221 579.29C166.081 579.29 166.778 578.591 166.778 577.732C166.778 576.871 166.081 576.175 165.221 576.175Z" fill="#133E70"/>
<path d="M179.203 576.175C178.343 576.175 177.645 576.871 177.645 577.732C177.645 578.591 178.343 579.29 179.203 579.29C180.063 579.29 180.76 578.591 180.76 577.732C180.76 576.871 180.063 576.175 179.203 576.175Z" fill="#133E70"/>
<path d="M151.239 590.494C150.379 590.494 149.682 591.19 149.682 592.051C149.682 592.91 150.379 593.609 151.239 593.609C152.099 593.609 152.796 592.91 152.796 592.051C152.796 591.19 152.099 590.494 151.239 590.494Z" fill="#133E70"/>
<path d="M165.221 590.494C164.361 590.494 163.664 591.19 163.664 592.051C163.664 592.91 164.361 593.609 165.221 593.609C166.081 593.609 166.778 592.91 166.778 592.051C166.778 591.19 166.081 590.494 165.221 590.494Z" fill="#133E70"/>
<path d="M179.203 590.494C178.343 590.494 177.645 591.19 177.645 592.051C177.645 592.91 178.343 593.609 179.203 593.609C180.063 593.609 180.76 592.91 180.76 592.051C180.76 591.19 180.063 590.494 179.203 590.494Z" fill="#133E70"/>
<path d="M776.66 129.696C775.798 129.696 775.102 130.393 775.102 131.253C775.102 132.113 775.798 132.81 776.66 132.81C777.52 132.81 778.217 132.113 778.217 131.253C778.217 130.393 777.52 129.696 776.66 129.696Z" fill="#133E70"/>
<path d="M790.641 129.696C789.78 129.696 789.084 130.393 789.084 131.253C789.084 132.113 789.78 132.81 790.641 132.81C791.501 132.81 792.199 132.113 792.199 131.253C792.199 130.393 791.501 129.696 790.641 129.696Z" fill="#133E70"/>
<path d="M804.623 132.811C805.483 132.811 806.18 132.114 806.18 131.254C806.18 130.394 805.483 129.696 804.623 129.696C803.762 129.696 803.066 130.394 803.066 131.254C803.066 132.114 803.762 132.811 804.623 132.811Z" fill="#133E70"/>
<path d="M776.66 144.015C775.798 144.015 775.102 144.712 775.102 145.572C775.102 146.432 775.798 147.129 776.66 147.129C777.52 147.129 778.217 146.432 778.217 145.572C778.217 144.712 777.52 144.015 776.66 144.015Z" fill="#133E70"/>
<path d="M790.641 144.015C789.78 144.015 789.084 144.712 789.084 145.572C789.084 146.432 789.78 147.129 790.641 147.129C791.501 147.129 792.199 146.432 792.199 145.572C792.199 144.712 791.501 144.015 790.641 144.015Z" fill="#133E70"/>
<path d="M804.623 144.015C803.762 144.015 803.066 144.712 803.066 145.572C803.066 146.432 803.762 147.129 804.623 147.129C805.483 147.129 806.18 146.432 806.18 145.572C806.18 144.712 805.483 144.015 804.623 144.015Z" fill="#133E70"/>
<path d="M776.66 158.333C775.798 158.333 775.102 159.03 775.102 159.89C775.102 160.75 775.798 161.448 776.66 161.448C777.52 161.448 778.217 160.75 778.217 159.89C778.217 159.03 777.52 158.333 776.66 158.333Z" fill="#133E70"/>
<path d="M790.641 158.333C789.78 158.333 789.084 159.03 789.084 159.89C789.084 160.75 789.78 161.448 790.641 161.448C791.501 161.448 792.199 160.75 792.199 159.89C792.199 159.03 791.501 158.333 790.641 158.333Z" fill="#133E70"/>
<path d="M804.623 158.333C803.762 158.333 803.066 159.03 803.066 159.89C803.066 160.75 803.762 161.448 804.623 161.448C805.483 161.448 806.18 160.75 806.18 159.89C806.18 159.03 805.483 158.333 804.623 158.333Z" fill="#133E70"/>
<path d="M170.175 73.3884C169.315 73.3884 168.617 74.0844 168.617 74.9457C168.617 75.8057 169.315 76.5031 170.175 76.5031C171.036 76.5031 171.732 75.8057 171.732 74.9457C171.732 74.0844 171.036 73.3884 170.175 73.3884Z" fill="#133E70"/>
<path d="M184.156 73.3884C183.296 73.3884 182.599 74.0844 182.599 74.9457C182.599 75.8057 183.296 76.5031 184.156 76.5031C185.018 76.5031 185.714 75.8057 185.714 74.9457C185.714 74.0844 185.018 73.3884 184.156 73.3884Z" fill="#133E70"/>
<path d="M198.139 76.5031C198.999 76.5031 199.696 75.8057 199.696 74.9457C199.696 74.0857 198.999 73.3884 198.139 73.3884C197.277 73.3884 196.581 74.0857 196.581 74.9457C196.581 75.8057 197.277 76.5031 198.139 76.5031Z" fill="#133E70"/>
<path d="M170.175 87.7069C169.315 87.7069 168.617 88.4042 168.617 89.2642C168.617 90.1242 169.315 90.8215 170.175 90.8215C171.036 90.8215 171.732 90.1242 171.732 89.2642C171.732 88.4042 171.036 87.7069 170.175 87.7069Z" fill="#133E70"/>
<path d="M184.156 87.7069C183.296 87.7069 182.599 88.4042 182.599 89.2642C182.599 90.1242 183.296 90.8215 184.156 90.8215C185.018 90.8215 185.714 90.1242 185.714 89.2642C185.714 88.4042 185.018 87.7069 184.156 87.7069Z" fill="#133E70"/>
<path d="M198.139 87.7069C197.277 87.7069 196.581 88.4042 196.581 89.2642C196.581 90.1242 197.277 90.8215 198.139 90.8215C198.999 90.8215 199.696 90.1242 199.696 89.2642C199.696 88.4042 198.999 87.7069 198.139 87.7069Z" fill="#133E70"/>
<path d="M170.175 102.025C169.315 102.025 168.617 102.723 168.617 103.583C168.617 104.443 169.315 105.14 170.175 105.14C171.036 105.14 171.732 104.443 171.732 103.583C171.732 102.723 171.036 102.025 170.175 102.025Z" fill="#133E70"/>
<path d="M184.156 102.025C183.296 102.025 182.599 102.723 182.599 103.583C182.599 104.443 183.296 105.14 184.156 105.14C185.018 105.14 185.714 104.443 185.714 103.583C185.714 102.723 185.018 102.025 184.156 102.025Z" fill="#133E70"/>
<path d="M198.139 102.025C197.277 102.025 196.581 102.723 196.581 103.583C196.581 104.443 197.277 105.14 198.139 105.14C198.999 105.14 199.696 104.443 199.696 103.583C199.696 102.723 198.999 102.025 198.139 102.025Z" fill="#133E70"/>
<path d="M141.167 183.31H130.133C129.061 183.31 128.193 184.178 128.193 185.25C128.193 186.32 129.061 187.188 130.133 187.188H139.227V196.284C139.227 197.355 140.095 198.224 141.167 198.224C142.238 198.224 143.107 197.355 143.107 196.284V185.25C143.107 184.178 142.238 183.31 141.167 183.31Z" fill="#133E70"/>
<path d="M153.51 170.967H142.475C141.403 170.967 140.535 171.835 140.535 172.907C140.535 173.977 141.403 174.847 142.475 174.847H151.57V183.941C151.57 185.012 152.439 185.881 153.51 185.881C154.581 185.881 155.45 185.012 155.45 183.941V172.907C155.45 171.835 154.581 170.967 153.51 170.967Z" fill="#133E70"/>
<path d="M165.853 158.624H154.818C153.746 158.624 152.878 159.492 152.878 160.564C152.878 161.634 153.746 162.504 154.818 162.504H163.913V171.598C163.913 172.67 164.781 173.538 165.853 173.538C166.924 173.538 167.793 172.67 167.793 171.598V160.564C167.793 159.492 166.924 158.624 165.853 158.624Z" fill="#133E70"/>
<path d="M178.196 146.281H167.161C166.089 146.281 165.221 147.149 165.221 148.221C165.221 149.292 166.089 150.16 167.161 150.16H176.256V159.256C176.256 160.328 177.124 161.196 178.196 161.196C179.267 161.196 180.135 160.328 180.135 159.256V148.221C180.135 147.149 179.267 146.281 178.196 146.281Z" fill="#133E70"/>
<path d="M190.539 133.938H179.504C178.432 133.938 177.564 134.806 177.564 135.878C177.564 136.949 178.432 137.818 179.504 137.818H188.599V146.913C188.599 147.985 189.468 148.853 190.539 148.853C191.609 148.853 192.479 147.985 192.479 146.913V135.878C192.479 134.806 191.609 133.938 190.539 133.938Z" fill="#133E70"/>
<path d="M828.817 518.963H817.784C816.712 518.963 815.844 519.831 815.844 520.903C815.844 521.975 816.712 522.843 817.784 522.843H826.878V531.937C826.878 533.009 827.746 533.877 828.817 533.877C829.889 533.877 830.757 533.009 830.757 531.937V520.903C830.757 519.831 829.889 518.963 828.817 518.963Z" fill="#133E70"/>
<path d="M841.161 506.62H830.126C829.054 506.62 828.186 507.488 828.186 508.56C828.186 509.631 829.054 510.499 830.126 510.499H839.221V519.593C839.221 520.665 840.089 521.535 841.161 521.535C842.232 521.535 843.1 520.665 843.1 519.593V508.56C843.1 507.488 842.232 506.62 841.161 506.62Z" fill="#133E70"/>
<path d="M853.504 494.278H842.469C841.397 494.278 840.529 495.146 840.529 496.216C840.529 497.288 841.397 498.156 842.469 498.156H851.564V507.251C851.564 508.323 852.432 509.192 853.504 509.192C854.576 509.192 855.444 508.323 855.444 507.251V496.216C855.444 495.146 854.576 494.278 853.504 494.278Z" fill="#133E70"/>
<path d="M865.846 481.934H854.811C853.739 481.934 852.873 482.802 852.873 483.874C852.873 484.946 853.739 485.814 854.811 485.814H863.906V494.909C863.906 495.981 864.774 496.85 865.846 496.85C866.918 496.85 867.786 495.981 867.786 494.909V483.874C867.786 482.802 866.918 481.934 865.846 481.934Z" fill="#133E70"/>
<path d="M878.19 469.592H867.155C866.083 469.592 865.215 470.46 865.215 471.532C865.215 472.602 866.083 473.47 867.155 473.47H876.25V482.566C876.25 483.637 877.118 484.506 878.19 484.506C879.26 484.506 880.128 483.637 880.128 482.566V471.532C880.128 470.46 879.26 469.592 878.19 469.592Z" fill="#133E70"/>
<path d="M221.245 595.121H210.21C209.138 595.121 208.27 595.989 208.27 597.06C208.27 598.132 209.138 599 210.21 599H219.305V608.095C219.305 609.167 220.174 610.036 221.245 610.036C222.316 610.036 223.185 609.167 223.185 608.095V597.06C223.185 595.989 222.316 595.121 221.245 595.121Z" fill="#E82C7E"/>
<path d="M233.588 582.778H222.553C221.481 582.778 220.613 583.647 220.613 584.718C220.613 585.79 221.481 586.658 222.553 586.658H231.648V595.752C231.648 596.824 232.516 597.694 233.588 597.694C234.659 597.694 235.528 596.824 235.528 595.752V584.718C235.528 583.647 234.659 582.778 233.588 582.778Z" fill="#E82C7E"/>
<path d="M245.931 570.435H234.896C233.824 570.435 232.956 571.303 232.956 572.375C232.956 573.447 233.824 574.315 234.896 574.315H243.991V583.41C243.991 584.481 244.86 585.35 245.931 585.35C247.003 585.35 247.871 584.481 247.871 583.41V572.375C247.871 571.303 247.003 570.435 245.931 570.435Z" fill="#E82C7E"/>
<path d="M258.274 558.093H247.239C246.167 558.093 245.299 558.961 245.299 560.031C245.299 561.103 246.167 561.971 247.239 561.971H256.334V571.067C256.334 572.138 257.202 573.007 258.274 573.007C259.344 573.007 260.214 572.138 260.214 571.067V560.031C260.214 558.961 259.344 558.093 258.274 558.093Z" fill="#E82C7E"/>
<path d="M270.616 545.75H259.581C258.509 545.75 257.641 546.618 257.641 547.689C257.641 548.761 258.509 549.629 259.581 549.629H268.676V558.724C268.676 559.796 269.545 560.665 270.616 560.665C271.688 560.665 272.556 559.796 272.556 558.724V547.689C272.556 546.618 271.688 545.75 270.616 545.75Z" fill="#E82C7E"/>
<path d="M754.244 100.075H743.211C742.139 100.075 741.271 100.943 741.271 102.015C741.271 103.085 742.139 103.953 743.211 103.953H752.306V113.049C752.306 114.12 753.174 114.989 754.244 114.989C755.316 114.989 756.184 114.12 756.184 113.049V102.015C756.184 100.943 755.316 100.075 754.244 100.075Z" fill="#E82C7E"/>
<path d="M766.588 87.7316H755.553C754.481 87.7316 753.613 88.5996 753.613 89.6716C753.613 90.7422 754.481 91.6116 755.553 91.6116H764.648V100.706C764.648 101.777 765.516 102.646 766.588 102.646C767.659 102.646 768.527 101.777 768.527 100.706V89.6716C768.527 88.5996 767.659 87.7316 766.588 87.7316Z" fill="#E82C7E"/>
<path d="M778.931 75.3884H767.896C766.824 75.3884 765.956 76.2564 765.956 77.3284C765.956 78.3991 766.824 79.2684 767.896 79.2684H776.991V88.3631C776.991 89.4351 777.859 90.3031 778.931 90.3031C780.003 90.3031 780.871 89.4351 780.871 88.3631V77.3284C780.871 76.2564 780.003 75.3884 778.931 75.3884Z" fill="#E82C7E"/>
<path d="M791.273 63.046H780.238C779.166 63.046 778.3 63.914 778.3 64.986C778.3 66.0567 779.166 66.9247 780.238 66.9247H789.333V76.0207C789.333 77.0914 790.201 77.9607 791.273 77.9607C792.345 77.9607 793.213 77.0914 793.213 76.0207V64.986C793.213 63.914 792.345 63.046 791.273 63.046Z" fill="#E82C7E"/>
<path d="M803.617 50.703H792.582C791.51 50.703 790.642 51.571 790.642 52.643C790.642 53.7137 791.51 54.583 792.582 54.583H801.677V63.6777C801.677 64.7497 802.545 65.6177 803.617 65.6177C804.687 65.6177 805.555 64.7497 805.555 63.6777V52.643C805.555 51.571 804.687 50.703 803.617 50.703Z" fill="#E82C7E"/>
<path d="M123.934 290.411C126.668 293.146 131.103 293.146 133.839 290.411C136.574 287.675 136.574 283.242 133.839 280.506C131.103 277.771 126.668 277.771 123.934 280.506C121.198 283.242 121.198 287.675 123.934 290.411Z" fill="#E82C7E"/>
<path d="M97.0308 317.314C94.2961 314.579 89.8615 314.579 87.1255 317.314C84.3908 320.048 84.3908 324.483 87.1255 327.219C89.8615 329.954 94.2961 329.954 97.0308 327.219C99.7655 324.483 99.7655 320.048 97.0308 317.314Z" fill="#E82C7E"/>
<path d="M60.2228 354.121C57.4881 351.385 53.0535 351.385 50.3175 354.121C47.5828 356.856 47.5828 361.291 50.3175 364.027C53.0535 366.76 57.4881 366.76 60.2228 364.027C62.9588 361.291 62.9588 356.856 60.2228 354.121Z" fill="#E82C7E"/>
<path d="M929.239 319.379C931.974 322.113 936.408 322.113 939.144 319.379C941.878 316.643 941.878 312.209 939.144 309.473C936.408 306.739 931.974 306.739 929.239 309.473C926.503 312.208 926.503 316.643 929.239 319.379Z" fill="#E82C7E"/>
<path d="M902.336 346.28C899.601 343.546 895.166 343.546 892.43 346.28C889.697 349.016 889.697 353.451 892.43 356.187C895.166 358.92 899.601 358.92 902.336 356.186C905.072 353.451 905.072 349.016 902.336 346.28Z" fill="#E82C7E"/>
<path d="M865.528 383.089C862.792 380.353 858.359 380.353 855.623 383.089C852.888 385.824 852.888 390.258 855.623 392.994C858.359 395.728 862.792 395.728 865.528 392.994C868.264 390.258 868.264 385.824 865.528 383.089Z" fill="#E82C7E"/>
<path d="M448.445 78.5876L728.402 -201.371L759.902 -169.87L511.446 78.5876C494.049 95.985 465.842 95.985 448.445 78.5876Z" fill="#133E70"/>
<path d="M807.257 735.008C803.217 730.968 803.217 724.418 807.257 720.378L908.539 619.096C912.579 615.056 919.129 615.056 923.171 619.096C927.211 623.138 927.211 629.688 923.171 633.728L821.889 735.008C817.848 739.048 811.297 739.048 807.257 735.008Z" fill="#FFFCFA"/>
</g>
<defs>
<clipPath id="clip0">
<rect width="1000" height="666.667" fill="white"/>
</clipPath>
</defs>
</svg>
