<svg width="275" height="182" viewBox="0 0 275 182" fill="none" xmlns="http://www.w3.org/2000/svg">
<path d="M275 0H0V182H275V0Z" fill="#C4C4C4"/>
<g filter="url(#filter0_d)">
<path d="M29.4824 41.4745C38.1853 41.4745 45.2403 34.7024 45.2403 26.3485C45.2403 17.9947 38.1853 11.2225 29.4824 11.2225C20.7796 11.2225 13.7245 17.9947 13.7245 26.3485C13.7245 34.7024 20.7796 41.4745 29.4824 41.4745Z" fill="#AF9BDA"/>
<path d="M29.3657 35.4241C34.6519 35.4241 38.9371 31.3107 38.9371 26.2365C38.9371 21.1623 34.6519 17.0488 29.3657 17.0488C24.0796 17.0488 19.7943 21.1623 19.7943 26.2365C19.7943 31.3107 24.0796 35.4241 29.3657 35.4241Z" fill="#9C6DCA"/>
</g>
<g filter="url(#filter1_d)">
<path d="M69.5351 125.469C75.7113 125.469 80.7181 120.663 80.7181 114.735C80.7181 108.806 75.7113 104 69.5351 104C63.3589 104 58.3521 108.806 58.3521 114.735C58.3521 120.663 63.3589 125.469 69.5351 125.469Z" fill="#AF9BDA"/>
<path d="M69.4526 121.176C73.204 121.176 76.2452 118.256 76.2452 114.655C76.2452 111.054 73.204 108.135 69.4526 108.135C65.7011 108.135 62.6599 111.054 62.6599 114.655C62.6599 118.256 65.7011 121.176 69.4526 121.176Z" fill="#9C6DCA"/>
</g>
<g filter="url(#filter2_d)">
<path d="M7.81075 90.781C12.1245 90.781 15.6215 87.5041 15.6215 83.4619C15.6215 79.4197 12.1245 76.1429 7.81075 76.1429C3.49699 76.1429 0 79.4197 0 83.4619C0 87.5041 3.49699 90.781 7.81075 90.781Z" fill="#AF9BDA"/>
<path d="M7.75288 87.8531C10.3731 87.8531 12.4972 85.8627 12.4972 83.4074C12.4972 80.9522 10.3731 78.9618 7.75288 78.9618C5.13267 78.9618 3.00858 80.9522 3.00858 83.4074C3.00858 85.8627 5.13267 87.8531 7.75288 87.8531Z" fill="#9C6DCA"/>
</g>
<defs>
<filter id="filter0_d" x="13.7245" y="11.2225" width="45.5158" height="38.252" filterUnits="userSpaceOnUse" color-interpolation-filters="sRGB">
<feFlood flood-opacity="0" result="BackgroundImageFix"/>
<feColorMatrix in="SourceAlpha" type="matrix" values="0 0 0 0 0 0 0 0 0 0 0 0 0 0 0 0 0 0 127 0"/>
<feOffset dx="10" dy="4"/>
<feGaussianBlur stdDeviation="2"/>
<feColorMatrix type="matrix" values="0 0 0 0 0 0 0 0 0 0 0 0 0 0 0 0 0 0 0.25 0"/>
<feBlend mode="normal" in2="BackgroundImageFix" result="effect1_dropShadow"/>
<feBlend mode="normal" in="SourceGraphic" in2="effect1_dropShadow" result="shape"/>
</filter>
<filter id="filter1_d" x="58.3521" y="104" width="36.366" height="29.4692" filterUnits="userSpaceOnUse" color-interpolation-filters="sRGB">
<feFlood flood-opacity="0" result="BackgroundImageFix"/>
<feColorMatrix in="SourceAlpha" type="matrix" values="0 0 0 0 0 0 0 0 0 0 0 0 0 0 0 0 0 0 127 0"/>
<feOffset dx="10" dy="4"/>
<feGaussianBlur stdDeviation="2"/>
<feColorMatrix type="matrix" values="0 0 0 0 0 0 0 0 0 0 0 0 0 0 0 0 0 0 0.25 0"/>
<feBlend mode="normal" in2="BackgroundImageFix" result="effect1_dropShadow"/>
<feBlend mode="normal" in="SourceGraphic" in2="effect1_dropShadow" result="shape"/>
</filter>
<filter id="filter2_d" x="0" y="76.1429" width="29.6215" height="22.6381" filterUnits="userSpaceOnUse" color-interpolation-filters="sRGB">
<feFlood flood-opacity="0" result="BackgroundImageFix"/>
<feColorMatrix in="SourceAlpha" type="matrix" values="0 0 0 0 0 0 0 0 0 0 0 0 0 0 0 0 0 0 127 0"/>
<feOffset dx="10" dy="4"/>
<feGaussianBlur stdDeviation="2"/>
<feColorMatrix type="matrix" values="0 0 0 0 0 0 0 0 0 0 0 0 0 0 0 0 0 0 0.25 0"/>
<feBlend mode="normal" in2="BackgroundImageFix" result="effect1_dropShadow"/>
<feBlend mode="normal" in="SourceGraphic" in2="effect1_dropShadow" result="shape"/>
</filter>
</defs>
</svg>
