<svg width="275" height="182" viewBox="0 0 275 182" fill="none" xmlns="http://www.w3.org/2000/svg">
<path d="M275 0H0V182H275V0Z" fill="#FDF5F5"/>
<g filter="url(#filter0_d)">
<path d="M29.4824 41.4745C38.1853 41.4745 45.2403 34.7024 45.2403 26.3485C45.2403 17.9947 38.1853 11.2225 29.4824 11.2225C20.7796 11.2225 13.7245 17.9947 13.7245 26.3485C13.7245 34.7024 20.7796 41.4745 29.4824 41.4745Z" fill="#AF9BDA"/>
<path d="M29.3657 35.4241C34.6519 35.4241 38.9371 31.3107 38.9371 26.2365C38.9371 21.1623 34.6519 17.0488 29.3657 17.0488C24.0796 17.0488 19.7943 21.1623 19.7943 26.2365C19.7943 31.3107 24.0796 35.4241 29.3657 35.4241Z" fill="#9C6DCA"/>
</g>
<g filter="url(#filter1_d)">
<path d="M244.183 100.469C250.359 100.469 255.366 95.6631 255.366 89.7346C255.366 83.806 250.359 79 244.183 79C238.007 79 233 83.806 233 89.7346C233 95.6631 238.007 100.469 244.183 100.469Z" fill="#AF9BDA"/>
<path d="M244.1 96.1756C247.852 96.1756 250.893 93.2564 250.893 89.6554C250.893 86.0543 247.852 83.1351 244.1 83.1351C240.349 83.1351 237.308 86.0543 237.308 89.6554C237.308 93.2564 240.349 96.1756 244.1 96.1756Z" fill="#9C6DCA"/>
</g>
<g filter="url(#filter2_d)">
<path d="M19.8107 82.6381C24.1245 82.6381 27.6215 79.3613 27.6215 75.3191C27.6215 71.2768 24.1245 68 19.8107 68C15.497 68 12 71.2768 12 75.3191C12 79.3613 15.497 82.6381 19.8107 82.6381Z" fill="#AF9BDA"/>
<path d="M19.7529 79.7102C22.3731 79.7102 24.4972 77.7198 24.4972 75.2646C24.4972 72.8093 22.3731 70.8189 19.7529 70.8189C17.1327 70.8189 15.0086 72.8093 15.0086 75.2646C15.0086 77.7198 17.1327 79.7102 19.7529 79.7102Z" fill="#9C6DCA"/>
</g>
<defs>
<filter id="filter0_d" x="13.7245" y="11.2225" width="45.5158" height="38.252" filterUnits="userSpaceOnUse" color-interpolation-filters="sRGB">
<feFlood flood-opacity="0" result="BackgroundImageFix"/>
<feColorMatrix in="SourceAlpha" type="matrix" values="0 0 0 0 0 0 0 0 0 0 0 0 0 0 0 0 0 0 127 0"/>
<feOffset dx="10" dy="4"/>
<feGaussianBlur stdDeviation="2"/>
<feColorMatrix type="matrix" values="0 0 0 0 0 0 0 0 0 0 0 0 0 0 0 0 0 0 0.25 0"/>
<feBlend mode="normal" in2="BackgroundImageFix" result="effect1_dropShadow"/>
<feBlend mode="normal" in="SourceGraphic" in2="effect1_dropShadow" result="shape"/>
</filter>
<filter id="filter1_d" x="233" y="79" width="36.366" height="29.4692" filterUnits="userSpaceOnUse" color-interpolation-filters="sRGB">
<feFlood flood-opacity="0" result="BackgroundImageFix"/>
<feColorMatrix in="SourceAlpha" type="matrix" values="0 0 0 0 0 0 0 0 0 0 0 0 0 0 0 0 0 0 127 0"/>
<feOffset dx="10" dy="4"/>
<feGaussianBlur stdDeviation="2"/>
<feColorMatrix type="matrix" values="0 0 0 0 0 0 0 0 0 0 0 0 0 0 0 0 0 0 0.25 0"/>
<feBlend mode="normal" in2="BackgroundImageFix" result="effect1_dropShadow"/>
<feBlend mode="normal" in="SourceGraphic" in2="effect1_dropShadow" result="shape"/>
</filter>
<filter id="filter2_d" x="12" y="68" width="29.6215" height="22.6381" filterUnits="userSpaceOnUse" color-interpolation-filters="sRGB">
<feFlood flood-opacity="0" result="BackgroundImageFix"/>
<feColorMatrix in="SourceAlpha" type="matrix" values="0 0 0 0 0 0 0 0 0 0 0 0 0 0 0 0 0 0 127 0"/>
<feOffset dx="10" dy="4"/>
<feGaussianBlur stdDeviation="2"/>
<feColorMatrix type="matrix" values="0 0 0 0 0 0 0 0 0 0 0 0 0 0 0 0 0 0 0.25 0"/>
<feBlend mode="normal" in2="BackgroundImageFix" result="effect1_dropShadow"/>
<feBlend mode="normal" in="SourceGraphic" in2="effect1_dropShadow" result="shape"/>
</filter>
</defs>
</svg>
